Coordinates
version=1
nRows=10
nColumns=40
inDegrees=yes

Units are S.I. units (second, meters, Newtons, ...)
If the header above contains a line with 'inDegrees', this indicates whether rotational values are in degrees (yes) or radians (no).

endheader
time	pelvis_tilt	pelvis_list	pelvis_rotation	pelvis_tx	pelvis_ty	pelvis_tz	hip_flexion_r	hip_adduction_r	hip_rotation_r	knee_angle_r	knee_angle_r_beta	ankle_angle_r	subtalar_angle_r	mtp_angle_r	hip_flexion_l	hip_adduction_l	hip_rotation_l	knee_angle_l	knee_angle_l_beta	ankle_angle_l	subtalar_angle_l	mtp_angle_l	lumbar_extension	lumbar_bending	lumbar_rotation	arm_flex_r	arm_add_r	arm_rot_r	elbow_flex_r	pro_sup_r	wrist_flex_r	wrist_dev_r	arm_flex_l	arm_add_l	arm_rot_l	elbow_flex_l	pro_sup_l	wrist_flex_l	wrist_dev_l
      0.92000000	      0.86662914	      6.27248746	      0.35918619	      0.65230004	      0.94532593	      0.16320655	     24.07076132	    -15.59534395	    -11.91070198	     58.31879025	      1.01785491	     -0.81196614	     -9.22455643	      0.00000000	     -4.44437500	      7.51328451	    -20.30827500	      5.94828495	      0.10381716	      1.95425489	     11.98108904	      0.00000000	     -1.81033807	     -8.31046755	     -0.36928855	     44.16104778	    -15.68151887	     44.16104778	     75.17002676	     44.99473352	      0.00000000	      0.00000000	     44.16104778	    -15.68151887	     44.16104778	     75.17002676	     44.99473352	      0.00000000	      0.00000000
      0.92500000	      0.71315765	      6.47595886	      0.53761075	      0.65828393	      0.94492830	      0.16307934	     24.65109237	    -15.56476536	    -11.91080070	     57.07833552	      0.99620489	     -0.44951130	     -9.10597495	      0.00000000	     -4.70217140	      7.70875650	    -20.25936415	      5.97194101	      0.10423003	      2.01568539	     12.06074405	      0.00000000	     -1.62029486	     -8.45381456	     -0.28502988	     44.16128403	    -15.68120168	     44.16128403	     75.16987190	     44.99474684	      0.00000000	      0.00000000	     44.16128403	    -15.68120168	     44.16128403	     75.16987190	     44.99474684	      0.00000000	      0.00000000
      0.93000000	      0.53998318	      6.64642082	      0.73674821	      0.66430623	      0.94448042	      0.16290729	     25.19300500	    -15.50955110	    -11.93784148	     55.74645411	      0.97295917	     -0.09437530	     -8.90293799	      0.00000000	     -4.96298923	      7.87221128	    -20.18476924	      5.94557365	      0.10376984	      2.09350593	     12.19589795	      0.00000000	     -1.46510256	     -8.61397874	     -0.18561891	     44.16151763	    -15.68088809	     44.16151763	     75.16971886	     44.99475999	      0.00000000	      0.00000000	     44.16151763	    -15.68088809	     44.16151763	     75.16971886	     44.99475999	      0.00000000	      0.00000000
      0.93500000	      0.91352465	      5.84766011	      1.38205125	      0.67069501	      0.94579890	      0.16158103	     24.41419031	    -14.58217674	    -12.92432331	     53.54374919	      0.93451472	     -0.03084793	     -8.65338726	      0.00000000	     -6.04670734	      7.00093137	    -19.48575913	      5.46273898	      0.09534278	      2.10273404	     12.84863170	      0.00000000	     -2.12508897	     -7.49289825	     -0.82028167	     44.16514167	    -15.67602951	     44.16514167	     75.16735559	     44.99496048	      0.00000000	      0.00000000	     44.16514167	    -15.67602951	     44.16514167	     75.16735559	     44.99496048	      0.00000000	      0.00000000
      0.94000000	      0.90255563	      5.65393253	      1.77996539	      0.67681246	      0.94580342	      0.16086018	     24.46507772	    -14.22606316	    -13.34187981	     51.79264868	      0.90395225	      0.10667383	     -8.55768858	      0.00000000	     -6.52120719	      6.76940392	    -19.09877893	      5.35845322	      0.09352265	      2.23134703	     12.91070409	      0.00000000	     -2.20475211	     -7.24248498	     -1.19710333	     44.16885813	    -15.67106184	     44.16885813	     75.16495667	     44.99515872	      0.00000000	      0.00000000	     44.16885813	    -15.67106184	     44.16885813	     75.16495667	     44.99515872	      0.00000000	      0.00000000
      0.94500000	      0.68587203	      5.90764700	      1.97248464	      0.68286388	      0.94505112	      0.16067982	     24.98989019	    -14.31202794	    -13.38917085	     50.34287524	      0.87864893	      0.35351893	     -8.40991460	      0.00000000	     -6.72481881	      7.01304004	    -18.99679309	      5.37314151	      0.09377901	      2.33007252	     13.01543490	      0.00000000	     -2.00259200	     -7.49671339	     -1.06729551	     44.16922246	    -15.67057566	     44.16922246	     75.16472280	     44.99517778	      0.00000000	      0.00000000	     44.16922246	    -15.67057566	     44.16922246	     75.16472280	     44.99517778	      0.00000000	      0.00000000
      0.95000000	      0.83648497	      5.67881249	      2.44629556	      0.68911278	      0.94535670	      0.15968044	     24.69559436	    -13.98574671	    -13.97934761	     48.36509058	      0.84413007	      0.43719186	     -8.19774116	      0.00000000	     -7.44927481	      6.74515573	    -18.58771580	      5.10193067	      0.08904549	      2.38467556	     13.42430750	      0.00000000	     -2.30926197	     -7.05736035	     -1.42537279	     44.17177013	    -15.66717910	     44.17177013	     75.16309289	     44.99530943	      0.00000000	      0.00000000	     44.17177013	    -15.66717910	     44.17177013	     75.16309289	     44.99530943	      0.00000000	      0.00000000
      0.95500000	      0.56650902	      5.97414872	      2.67153235	      0.69517193	      0.94436257	      0.15930665	     25.24174941	    -14.16694838	    -14.06080596	     46.87996385	      0.81820972	      0.65883297	     -8.16909328	      0.00000000	     -7.58496468	      7.04278289	    -18.54839996	      5.12399888	      0.08943065	      2.49402884	     13.46311544	      0.00000000	     -2.05069634	     -7.29402714	     -1.30433552	     44.17198233	    -15.66689657	     44.17198233	     75.16295773	     44.99532022	      0.00000000	      0.00000000	     44.17198233	    -15.66689657	     44.17198233	     75.16295773	     44.99532022	      0.00000000	      0.00000000
      0.96000000	      0.75493410	      5.40999867	      3.25402957	      0.70145126	      0.94478848	      0.15804383	     24.69146983	    -13.49140947	    -14.87363351	     44.54946391	      0.77753483	      0.46030589	     -8.18631428	      0.00000000	     -8.30916610	      6.38717040	    -17.89102489	      4.93871687	      0.08619687	      2.62977412	     13.58690954	      0.00000000	     -2.40064970	     -6.59470610	     -2.07743678	     44.17607851	    -15.66145117	     44.17607851	     75.16036278	     44.99552458	      0.00000000	      0.00000000	     44.17607851	    -15.66145117	     44.17607851	     75.16036278	     44.99552458	      0.00000000	      0.00000000
      0.96500000	      0.54885389	      5.70019426	      3.47798460	      0.70753839	      0.94385775	      0.15763932	     25.08026865	    -13.69084831	    -15.02575625	     42.91901897	      0.74907819	      0.56890823	     -8.02521699	      0.00000000	     -8.53033761	      6.67941519	    -17.77805014	      4.94153386	      0.08624604	      2.75954365	     13.69429345	      0.00000000	     -2.22628405	     -6.83278251	     -2.00094976	     44.17681244	    -15.66047742	     44.17681244	     75.15990095	     44.99556033	      0.00000000	      0.00000000	     44.17681244	    -15.66047742	     44.17681244	     75.15990095	     44.99556033	      0.00000000	      0.00000000
